<svg width="1024" height="1024" viewBox="0 0 1024 1024" fill="none" xmlns="http://www.w3.org/2000/svg">
<mask id="mask0_7_13" style="mask-type:alpha" maskUnits="userSpaceOnUse" x="0" y="0" width="1024" height="1024">
<circle cx="512" cy="512" r="512" fill="#D9D9D9"/>
</mask>
<g mask="url(#mask0_7_13)">
<path d="M511.5 985.545L-83 29.0977L1106 29.0977L511.5 985.545Z" fill="#007067"/>
<path fill-rule="evenodd" clip-rule="evenodd" d="M816.495 278.98L511.5 769.688L206.504 278.98C242.819 231.42 290.005 192.604 344.354 166.244L678.646 166.244C732.995 192.604 780.181 231.419 816.495 278.98Z" fill="#01564F"/>
<path d="M511.5 575.298L354.676 287.887L668.324 287.887L511.5 575.298Z" fill="#00302C"/>
<mask id="path-5-outside-1_7_13" maskUnits="userSpaceOnUse" x="183.252" y="394.087" width="112.245" height="124.301" fill="black">
<rect fill="white" x="183.252" y="394.087" width="112.245" height="124.301"/>
<path d="M244.27 477.881L243.973 477.424C240.872 472.537 238.871 468.344 237.972 464.845C237.073 461.346 236.935 458.129 237.559 455.195C238.182 452.26 239.253 449.235 240.77 446.118C241.675 444.229 242.32 442.274 242.706 440.253C243.075 438.207 243.067 436.135 242.68 434.038C242.319 431.923 241.486 429.863 240.183 427.855C238.565 425.364 236.578 423.584 234.22 422.513C231.863 421.442 229.384 421.047 226.784 421.327C224.183 421.606 221.688 422.522 219.299 424.073C217.215 425.427 215.488 427.162 214.118 429.281C212.747 431.399 212.017 433.807 211.925 436.504C211.834 439.201 212.66 442.115 214.405 445.246L204.798 451.484C202.196 447.032 200.913 442.608 200.949 438.212C201.01 433.8 202.19 429.692 204.489 425.887C206.812 422.065 210.033 418.818 214.15 416.144C218.623 413.239 223.089 411.604 227.548 411.237C232.033 410.854 236.184 411.627 240.002 413.556C243.845 415.468 247.054 418.406 249.629 422.371C251.444 425.166 252.654 427.976 253.259 430.799C253.889 433.605 253.982 436.418 253.536 439.237C253.115 442.039 252.233 444.852 250.887 447.677C249.559 450.527 248.724 453.165 248.384 455.59C248.027 457.989 248.229 460.442 248.989 462.947C249.749 465.453 251.126 468.298 253.122 471.482L253.419 471.94L244.27 477.881ZM263.805 497.28C261.925 498.502 259.874 498.876 257.652 498.404C255.43 497.932 253.709 496.755 252.487 494.875C251.266 492.994 250.892 490.943 251.364 488.721C251.836 486.499 253.012 484.778 254.893 483.557C256.774 482.335 258.825 481.961 261.047 482.433C263.268 482.905 264.99 484.082 266.211 485.962C267.02 487.208 267.445 488.557 267.486 490.012C267.553 491.45 267.272 492.825 266.642 494.137C266.022 495.407 265.076 496.455 263.805 497.28Z"/>
</mask>
<path d="M244.27 477.881L243.973 477.424C240.872 472.537 238.871 468.344 237.972 464.845C237.073 461.346 236.935 458.129 237.559 455.195C238.182 452.26 239.253 449.235 240.77 446.118C241.675 444.229 242.32 442.274 242.706 440.253C243.075 438.207 243.067 436.135 242.68 434.038C242.319 431.923 241.486 429.863 240.183 427.855C238.565 425.364 236.578 423.584 234.22 422.513C231.863 421.442 229.384 421.047 226.784 421.327C224.183 421.606 221.688 422.522 219.299 424.073C217.215 425.427 215.488 427.162 214.118 429.281C212.747 431.399 212.017 433.807 211.925 436.504C211.834 439.201 212.66 442.115 214.405 445.246L204.798 451.484C202.196 447.032 200.913 442.608 200.949 438.212C201.01 433.8 202.19 429.692 204.489 425.887C206.812 422.065 210.033 418.818 214.15 416.144C218.623 413.239 223.089 411.604 227.548 411.237C232.033 410.854 236.184 411.627 240.002 413.556C243.845 415.468 247.054 418.406 249.629 422.371C251.444 425.166 252.654 427.976 253.259 430.799C253.889 433.605 253.982 436.418 253.536 439.237C253.115 442.039 252.233 444.852 250.887 447.677C249.559 450.527 248.724 453.165 248.384 455.59C248.027 457.989 248.229 460.442 248.989 462.947C249.749 465.453 251.126 468.298 253.122 471.482L253.419 471.94L244.27 477.881ZM263.805 497.28C261.925 498.502 259.874 498.876 257.652 498.404C255.43 497.932 253.709 496.755 252.487 494.875C251.266 492.994 250.892 490.943 251.364 488.721C251.836 486.499 253.012 484.778 254.893 483.557C256.774 482.335 258.825 481.961 261.047 482.433C263.268 482.905 264.99 484.082 266.211 485.962C267.02 487.208 267.445 488.557 267.486 490.012C267.553 491.45 267.272 492.825 266.642 494.137C266.022 495.407 265.076 496.455 263.805 497.28Z" fill="white" fill-opacity="0.5"/>
<path d="M244.27 477.881L240.077 480.604L242.8 484.798L246.993 482.075L244.27 477.881ZM243.973 477.424L239.751 480.103L239.765 480.125L239.78 480.147L243.973 477.424ZM237.972 464.845L233.129 466.089L233.129 466.089L237.972 464.845ZM237.559 455.195L242.449 456.234L242.449 456.234L237.559 455.195ZM240.77 446.118L245.265 448.306L245.272 448.293L245.278 448.279L240.77 446.118ZM242.706 440.253L247.617 441.191L247.622 441.166L247.627 441.141L242.706 440.253ZM242.68 434.038L237.752 434.88L237.757 434.912L237.763 434.944L242.68 434.038ZM214.118 429.281L209.92 426.565L214.118 429.281ZM211.925 436.504L216.922 436.673L216.922 436.673L211.925 436.504ZM214.405 445.246L217.128 449.439L221.047 446.894L218.773 442.812L214.405 445.246ZM204.798 451.484L200.481 454.007L203.126 458.532L207.521 455.678L204.798 451.484ZM200.949 438.212L195.949 438.143L195.949 438.157L195.949 438.171L200.949 438.212ZM204.489 425.887L200.216 423.289L200.213 423.295L200.209 423.302L204.489 425.887ZM227.548 411.237L227.958 416.22L227.966 416.22L227.974 416.219L227.548 411.237ZM240.002 413.556L237.747 418.018L237.761 418.025L237.775 418.032L240.002 413.556ZM253.259 430.799L248.37 431.846L248.375 431.87L248.381 431.894L253.259 430.799ZM253.536 439.237L248.597 438.456L248.594 438.475L248.591 438.495L253.536 439.237ZM250.887 447.677L246.373 445.527L246.364 445.546L246.356 445.564L250.887 447.677ZM248.384 455.59L253.33 456.325L253.333 456.305L253.335 456.284L248.384 455.59ZM253.122 471.482L248.885 474.137L248.907 474.172L248.929 474.205L253.122 471.482ZM253.419 471.94L256.142 476.133L260.336 473.41L257.613 469.216L253.419 471.94ZM257.652 498.404L258.691 493.513L257.652 498.404ZM251.364 488.721L256.255 489.761L251.364 488.721ZM267.486 490.012L262.488 490.154L262.489 490.199L262.492 490.244L267.486 490.012ZM266.642 494.137L271.135 496.332L271.143 496.316L271.15 496.3L266.642 494.137ZM248.463 475.158L248.166 474.701L239.78 480.147L240.077 480.604L248.463 475.158ZM248.195 474.745C245.226 470.067 243.529 466.38 242.815 463.6L233.129 466.089C234.213 470.307 236.517 475.006 239.751 480.103L248.195 474.745ZM242.815 463.6C242.069 460.698 242.016 458.275 242.449 456.234L232.668 454.155C231.854 457.983 232.077 461.994 233.129 466.089L242.815 463.6ZM242.449 456.234C242.977 453.753 243.899 451.113 245.265 448.306L236.274 443.93C234.606 447.357 233.388 450.768 232.668 454.155L242.449 456.234ZM245.278 448.279C246.367 446.009 247.149 443.643 247.617 441.191L237.795 439.316C237.491 440.906 236.983 442.45 236.261 443.957L245.278 448.279ZM247.627 441.141C248.106 438.486 248.09 435.806 247.597 433.131L237.763 434.944C238.043 436.464 238.045 437.928 237.786 439.366L247.627 441.141ZM247.609 433.196C247.12 430.337 246.007 427.643 244.376 425.132L235.989 430.578C236.966 432.082 237.518 433.51 237.752 434.88L247.609 433.196ZM244.376 425.132C242.317 421.961 239.636 419.481 236.288 417.961L232.153 427.066C233.519 427.686 234.813 428.767 235.989 430.578L244.376 425.132ZM236.288 417.961C233.108 416.516 229.729 415.981 226.249 416.355L227.318 426.298C229.039 426.113 230.619 426.369 232.153 427.066L236.288 417.961ZM226.249 416.355C222.8 416.726 219.564 417.94 216.576 419.88L222.022 428.267C223.813 427.104 225.566 426.486 227.318 426.298L226.249 416.355ZM216.576 419.88C213.893 421.622 211.666 423.865 209.92 426.565L218.316 431.997C219.31 430.46 220.538 429.231 222.022 428.267L216.576 419.88ZM209.92 426.565C208.023 429.497 207.048 432.798 206.928 436.335L216.922 436.673C216.985 434.816 217.472 433.301 218.316 431.997L209.92 426.565ZM206.928 436.335C206.798 440.192 207.991 444.007 210.037 447.679L218.773 442.812C217.33 440.222 216.87 438.21 216.922 436.673L206.928 436.335ZM211.681 441.052L202.075 447.291L207.521 455.678L217.128 449.439L211.681 441.052ZM209.115 448.961C206.887 445.15 205.921 441.603 205.948 438.253L195.949 438.171C195.904 443.613 197.504 448.913 200.481 454.007L209.115 448.961ZM205.948 438.282C205.997 434.765 206.925 431.523 208.768 428.472L200.209 423.302C197.455 427.86 196.023 432.836 195.949 438.143L205.948 438.282ZM208.761 428.485C210.658 425.365 213.323 422.643 216.873 420.337L211.427 411.951C206.742 414.993 202.967 418.765 200.216 423.289L208.761 428.485ZM216.873 420.337C220.785 417.797 224.468 416.507 227.958 416.22L227.138 406.254C221.71 406.7 216.461 408.681 211.427 411.951L216.873 420.337ZM227.974 416.219C231.584 415.91 234.801 416.53 237.747 418.018L242.256 409.093C237.566 406.723 232.481 405.797 227.123 406.255L227.974 416.219ZM237.775 418.032C240.738 419.507 243.297 421.801 245.435 425.094L253.822 419.648C250.811 415.011 246.952 411.429 242.229 409.079L237.775 418.032ZM245.435 425.094C246.969 427.456 247.911 429.704 248.37 431.846L258.148 429.751C257.398 426.247 255.919 422.877 253.822 419.648L245.435 425.094ZM248.381 431.894C248.874 434.09 248.944 436.265 248.597 438.456L258.474 440.018C259.02 436.57 258.905 433.121 258.138 429.703L248.381 431.894ZM248.591 438.495C248.251 440.761 247.528 443.102 246.373 445.527L255.402 449.827C256.937 446.603 257.98 443.317 258.48 439.978L248.591 438.495ZM246.356 445.564C244.874 448.743 243.858 451.863 243.432 454.895L253.335 456.284C253.59 454.467 254.244 452.311 255.419 449.79L246.356 445.564ZM243.438 454.855C242.964 458.043 243.247 461.242 244.204 464.399L253.774 461.496C253.211 459.642 253.09 457.936 253.33 456.325L243.438 454.855ZM244.204 464.399C245.135 467.468 246.747 470.726 248.885 474.137L257.359 468.827C255.506 465.87 254.363 463.438 253.774 461.496L244.204 464.399ZM248.929 474.205L249.226 474.663L257.613 469.216L257.316 468.759L248.929 474.205ZM250.696 467.746L241.547 473.688L246.993 482.075L256.142 476.133L250.696 467.746ZM261.082 493.087C260.33 493.576 259.635 493.714 258.691 493.513L256.612 503.295C260.112 504.039 263.52 503.428 266.529 501.474L261.082 493.087ZM258.691 493.513C257.748 493.313 257.169 492.904 256.681 492.151L248.294 497.598C250.248 500.607 253.112 502.551 256.612 503.295L258.691 493.513ZM256.681 492.151C256.192 491.399 256.054 490.704 256.255 489.761L246.473 487.681C245.729 491.181 246.34 494.589 248.294 497.598L256.681 492.151ZM256.255 489.761C256.455 488.817 256.864 488.239 257.616 487.75L252.17 479.363C249.161 481.317 247.217 484.181 246.473 487.681L256.255 489.761ZM257.616 487.75C258.369 487.261 259.064 487.123 260.007 487.324L262.086 477.542C258.586 476.798 255.179 477.409 252.17 479.363L257.616 487.75ZM260.007 487.324C260.95 487.524 261.529 487.933 262.018 488.685L270.404 483.239C268.451 480.23 265.586 478.286 262.086 477.542L260.007 487.324ZM262.018 488.685C262.337 489.177 262.473 489.637 262.488 490.154L272.484 489.87C272.416 487.478 271.703 485.238 270.404 483.239L262.018 488.685ZM262.492 490.244C262.52 490.847 262.41 491.4 262.134 491.975L271.15 496.3C272.133 494.251 272.586 492.054 272.481 489.78L262.492 490.244ZM262.15 491.943C261.956 492.34 261.65 492.718 261.082 493.087L266.529 501.474C268.503 500.192 270.088 498.475 271.135 496.332L262.15 491.943Z" fill="white" mask="url(#path-5-outside-1_7_13)"/>
<mask id="path-7-outside-2_7_13" maskUnits="userSpaceOnUse" x="715.247" y="386.181" width="112.245" height="124.301" fill="black">
<rect fill="white" x="715.247" y="386.181" width="112.245" height="124.301"/>
<path d="M753.589 461.607L753.886 461.149C757.089 456.328 760.106 452.795 762.937 450.551C765.767 448.306 768.65 446.872 771.584 446.248C774.519 445.624 777.718 445.371 781.182 445.489C783.276 445.548 785.324 445.343 787.327 444.873C789.347 444.378 791.236 443.528 792.995 442.321C794.78 441.131 796.324 439.533 797.628 437.525C799.245 435.034 800.063 432.495 800.083 429.906C800.102 427.317 799.455 424.891 798.142 422.629C796.828 420.367 794.977 418.46 792.588 416.909C790.504 415.556 788.216 414.684 785.724 414.294C783.231 413.903 780.734 414.215 778.233 415.229C775.732 416.242 773.406 418.182 771.256 421.049L761.649 414.811C764.658 410.622 768.178 407.651 772.208 405.896C776.263 404.157 780.497 403.564 784.908 404.116C789.344 404.685 793.621 406.306 797.738 408.98C802.211 411.884 805.521 415.299 807.67 419.224C809.844 423.165 810.826 427.271 810.617 431.544C810.434 435.833 809.054 439.959 806.48 443.924C804.664 446.72 802.59 448.968 800.257 450.668C797.95 452.386 795.418 453.614 792.661 454.353C789.93 455.109 787.001 455.447 783.873 455.367C780.729 455.312 777.98 455.623 775.626 456.298C773.289 456.948 771.131 458.13 769.151 459.843C767.171 461.557 765.132 463.972 763.035 467.091L762.738 467.548L753.589 461.607ZM743.813 487.343C741.932 486.122 740.756 484.401 740.283 482.179C739.811 479.957 740.186 477.906 741.407 476.025C742.628 474.145 744.35 472.968 746.571 472.496C748.793 472.024 750.844 472.398 752.725 473.62C754.606 474.841 755.782 476.562 756.254 478.784C756.727 481.006 756.352 483.057 755.131 484.938C754.322 486.183 753.262 487.12 751.95 487.75C750.663 488.396 749.292 488.698 747.838 488.657C746.425 488.606 745.083 488.169 743.813 487.343Z"/>
</mask>
<path d="M753.589 461.607L753.886 461.149C757.089 456.328 760.106 452.795 762.937 450.551C765.767 448.306 768.65 446.872 771.584 446.248C774.519 445.624 777.718 445.371 781.182 445.489C783.276 445.548 785.324 445.343 787.327 444.873C789.347 444.378 791.236 443.528 792.995 442.321C794.78 441.131 796.324 439.533 797.628 437.525C799.245 435.034 800.063 432.495 800.083 429.906C800.102 427.317 799.455 424.891 798.142 422.629C796.828 420.367 794.977 418.46 792.588 416.909C790.504 415.556 788.216 414.684 785.724 414.294C783.231 413.903 780.734 414.215 778.233 415.229C775.732 416.242 773.406 418.182 771.256 421.049L761.649 414.811C764.658 410.622 768.178 407.651 772.208 405.896C776.263 404.157 780.497 403.564 784.908 404.116C789.344 404.685 793.621 406.306 797.738 408.98C802.211 411.884 805.521 415.299 807.67 419.224C809.844 423.165 810.826 427.271 810.617 431.544C810.434 435.833 809.054 439.959 806.48 443.924C804.664 446.72 802.59 448.968 800.257 450.668C797.95 452.386 795.418 453.614 792.661 454.353C789.93 455.109 787.001 455.447 783.873 455.367C780.729 455.312 777.98 455.623 775.626 456.298C773.289 456.948 771.131 458.13 769.151 459.843C767.171 461.557 765.132 463.972 763.035 467.091L762.738 467.548L753.589 461.607ZM743.813 487.343C741.932 486.122 740.756 484.401 740.283 482.179C739.811 479.957 740.186 477.906 741.407 476.025C742.628 474.145 744.35 472.968 746.571 472.496C748.793 472.024 750.844 472.398 752.725 473.62C754.606 474.841 755.782 476.562 756.254 478.784C756.727 481.006 756.352 483.057 755.131 484.938C754.322 486.183 753.262 487.12 751.95 487.75C750.663 488.396 749.292 488.698 747.838 488.657C746.425 488.606 745.083 488.169 743.813 487.343Z" fill="white" fill-opacity="0.5"/>
<path d="M753.589 461.607L749.396 458.883L746.672 463.077L750.866 465.8L753.589 461.607ZM753.886 461.149L749.721 458.382L749.707 458.404L749.693 458.426L753.886 461.149ZM762.937 450.551L759.83 446.633L759.83 446.633L762.937 450.551ZM771.584 446.248L772.624 451.139L772.624 451.139L771.584 446.248ZM781.182 445.489L781.012 450.487L781.027 450.487L781.042 450.487L781.182 445.489ZM787.327 444.873L788.469 449.741L788.493 449.736L788.518 449.73L787.327 444.873ZM792.995 442.321L790.221 438.161L790.194 438.179L790.167 438.198L792.995 442.321ZM785.724 414.294L786.497 409.354L785.724 414.294ZM778.233 415.229L780.111 419.863L780.111 419.863L778.233 415.229ZM771.256 421.049L768.532 425.242L772.451 427.787L775.255 424.05L771.256 421.049ZM761.649 414.811L757.588 411.893L754.53 416.15L758.926 419.004L761.649 414.811ZM772.208 405.896L770.238 401.3L770.225 401.306L770.212 401.311L772.208 405.896ZM784.908 404.116L785.543 399.157L785.536 399.156L785.528 399.155L784.908 404.116ZM807.67 419.224L803.284 421.625L803.288 421.632L803.292 421.639L807.67 419.224ZM810.617 431.544L805.623 431.299L805.622 431.315L805.622 431.33L810.617 431.544ZM800.257 450.668L797.312 446.628L797.292 446.643L797.272 446.657L800.257 450.668ZM792.661 454.353L791.366 449.524L791.347 449.529L791.328 449.534L792.661 454.353ZM783.873 455.367L784.001 450.368L783.981 450.368L783.96 450.367L783.873 455.367ZM775.626 456.298L776.966 461.115L776.986 461.11L777.006 461.104L775.626 456.298ZM763.035 467.091L758.886 464.3L758.864 464.334L758.842 464.368L763.035 467.091ZM762.738 467.548L760.015 471.742L764.208 474.465L766.931 470.271L762.738 467.548ZM740.283 482.179L745.174 481.139L740.283 482.179ZM746.571 472.496L747.611 477.387L746.571 472.496ZM751.95 487.75L749.787 483.242L749.747 483.261L749.706 483.281L751.95 487.75ZM747.838 488.657L747.66 493.653L747.678 493.654L747.696 493.654L747.838 488.657ZM757.782 464.33L758.079 463.872L749.693 458.426L749.396 458.883L757.782 464.33ZM758.051 463.916C761.116 459.302 763.795 456.251 766.043 454.468L759.83 446.633C756.417 449.339 753.062 453.354 749.721 458.382L758.051 463.916ZM766.043 454.468C768.391 452.606 770.583 451.573 772.624 451.139L770.545 441.357C766.717 442.171 763.143 444.005 759.83 446.633L766.043 454.468ZM772.624 451.139C775.105 450.611 777.892 450.38 781.012 450.487L781.352 440.492C777.543 440.363 773.932 440.637 770.545 441.357L772.624 451.139ZM781.042 450.487C783.559 450.558 786.038 450.311 788.469 449.741L786.186 440.005C784.61 440.375 782.993 440.538 781.323 440.491L781.042 450.487ZM788.518 449.73C791.138 449.087 793.58 447.983 795.823 446.445L790.167 438.198C788.893 439.072 787.556 439.669 786.137 440.017L788.518 449.73ZM795.769 446.481C798.182 444.873 800.19 442.76 801.821 440.248L793.434 434.802C792.458 436.305 791.378 437.39 790.221 438.161L795.769 446.481ZM801.821 440.248C803.88 437.078 805.055 433.62 805.083 429.943L795.083 429.868C795.072 431.369 794.61 432.991 793.434 434.802L801.821 440.248ZM805.083 429.943C805.108 426.45 804.223 423.146 802.466 420.119L793.818 425.139C794.687 426.636 795.095 428.183 795.083 429.868L805.083 429.943ZM802.466 420.119C800.724 417.119 798.299 414.656 795.312 412.716L789.865 421.102C791.656 422.265 792.933 423.615 793.818 425.139L802.466 420.119ZM795.312 412.716C792.628 410.973 789.674 409.851 786.497 409.354L784.95 419.233C786.759 419.517 788.381 420.138 789.865 421.102L795.312 412.716ZM786.497 409.354C783.047 408.814 779.635 409.265 776.355 410.595L780.111 419.863C781.833 419.165 783.415 418.993 784.95 419.233L786.497 409.354ZM776.355 410.595C772.778 412.044 769.778 414.686 767.256 418.049L775.255 424.05C777.034 421.678 778.686 420.44 780.111 419.863L776.355 410.595ZM773.979 416.856L764.372 410.617L758.926 419.004L768.532 425.242L773.979 416.856ZM765.71 417.728C768.285 414.143 771.133 411.817 774.204 410.48L770.212 401.311C765.222 403.484 761.031 407.101 757.588 411.893L765.71 417.728ZM774.178 410.491C777.411 409.106 780.749 408.635 784.287 409.078L785.528 399.155C780.244 398.494 775.116 399.209 770.238 401.3L774.178 410.491ZM784.272 409.076C787.893 409.54 791.465 410.868 795.015 413.173L800.461 404.786C795.777 401.744 790.794 399.83 785.543 399.157L784.272 409.076ZM795.015 413.173C798.926 415.713 801.603 418.553 803.284 421.625L812.056 416.823C809.44 412.045 805.495 408.056 800.461 404.786L795.015 413.173ZM803.292 421.639C805.042 424.812 805.785 428.003 805.623 431.299L815.611 431.788C815.868 426.54 814.646 421.518 812.048 416.809L803.292 421.639ZM805.622 431.33C805.48 434.637 804.425 437.908 802.286 441.201L810.673 446.647C813.684 442.011 815.387 437.028 815.613 431.758L805.622 431.33ZM802.286 441.201C800.752 443.563 799.082 445.338 797.312 446.628L803.203 454.709C806.098 452.598 808.576 449.876 810.673 446.647L802.286 441.201ZM797.272 446.657C795.467 448.001 793.508 448.949 791.366 449.524L793.956 459.182C797.328 458.278 800.432 456.771 803.242 454.68L797.272 446.657ZM791.328 449.534C789.119 450.145 786.686 450.437 784.001 450.368L783.745 460.365C787.315 460.456 790.741 460.072 793.995 459.172L791.328 449.534ZM783.96 450.367C780.453 450.307 777.19 450.647 774.247 451.492L777.006 461.104C778.77 460.598 781.005 460.318 783.786 460.366L783.96 450.367ZM774.286 451.481C771.181 452.345 768.373 453.904 765.879 456.062L772.423 463.624C773.888 462.356 775.397 461.552 776.966 461.115L774.286 451.481ZM765.879 456.062C763.454 458.161 761.133 460.959 758.886 464.3L767.184 469.881C769.132 466.985 770.888 464.952 772.423 463.624L765.879 456.062ZM758.842 464.368L758.545 464.825L766.931 470.271L767.228 469.814L758.842 464.368ZM765.461 463.355L756.312 457.413L750.866 465.8L760.015 471.742L765.461 463.355ZM746.536 483.15C745.783 482.661 745.375 482.083 745.174 481.139L735.393 483.218C736.137 486.718 738.081 489.583 741.09 491.537L746.536 483.15ZM745.174 481.139C744.974 480.196 745.112 479.501 745.6 478.749L737.214 473.302C735.26 476.311 734.649 479.718 735.393 483.218L745.174 481.139ZM745.6 478.749C746.089 477.996 746.668 477.587 747.611 477.387L745.532 467.605C742.032 468.349 739.168 470.293 737.214 473.302L745.6 478.749ZM747.611 477.387C748.554 477.186 749.249 477.324 750.002 477.813L755.448 469.426C752.439 467.472 749.032 466.861 745.532 467.605L747.611 477.387ZM750.002 477.813C750.754 478.302 751.163 478.88 751.364 479.824L761.145 477.745C760.401 474.245 758.457 471.38 755.448 469.426L750.002 477.813ZM751.364 479.824C751.564 480.767 751.426 481.462 750.937 482.214L759.324 487.661C761.278 484.652 761.889 481.245 761.145 477.745L751.364 479.824ZM750.937 482.214C750.618 482.706 750.253 483.018 749.787 483.242L754.112 492.258C756.27 491.223 758.026 489.66 759.324 487.661L750.937 482.214ZM749.706 483.281C749.167 483.552 748.617 483.677 747.98 483.659L747.696 493.654C749.968 493.719 752.159 493.239 754.193 492.218L749.706 483.281ZM748.015 483.66C747.574 483.644 747.103 483.518 746.536 483.15L741.09 491.537C743.064 492.819 745.277 493.569 747.66 493.653L748.015 483.66Z" fill="#FFFEFE" mask="url(#path-7-outside-2_7_13)"/>
<mask id="path-9-inside-3_7_13" fill="white">
<path fill-rule="evenodd" clip-rule="evenodd" d="M722.261 223.051C727.044 220.289 733.16 221.928 735.922 226.711L750.838 252.547C753.599 257.33 751.961 263.446 747.178 266.207L732.604 274.621L745.56 297.063L716.964 313.573L704.007 291.132L684.347 302.483L706.273 340.46L677.677 356.971L655.75 318.993L554.773 377.292C567.633 422.714 547.606 473.497 503.482 498.972C451.66 528.892 386.223 512.571 357.325 462.518C328.427 412.465 347.011 347.634 398.833 317.715C442.957 292.24 496.95 300.287 529.856 334.136L722.261 223.051ZM396.943 439.644C413.64 468.563 451.448 477.993 481.39 460.706C511.332 443.419 522.069 405.962 505.373 377.042C488.676 348.123 450.868 338.693 420.926 355.98C390.984 373.267 380.247 410.724 396.943 439.644Z"/>
</mask>
<path fill-rule="evenodd" clip-rule="evenodd" d="M722.261 223.051C727.044 220.289 733.16 221.928 735.922 226.711L750.838 252.547C753.599 257.33 751.961 263.446 747.178 266.207L732.604 274.621L745.56 297.063L716.964 313.573L704.007 291.132L684.347 302.483L706.273 340.46L677.677 356.971L655.75 318.993L554.773 377.292C567.633 422.714 547.606 473.497 503.482 498.972C451.66 528.892 386.223 512.571 357.325 462.518C328.427 412.465 347.011 347.634 398.833 317.715C442.957 292.24 496.95 300.287 529.856 334.136L722.261 223.051ZM396.943 439.644C413.64 468.563 451.448 477.993 481.39 460.706C511.332 443.419 522.069 405.962 505.373 377.042C488.676 348.123 450.868 338.693 420.926 355.98C390.984 373.267 380.247 410.724 396.943 439.644Z" fill="white"/>
<path d="M735.922 226.711L727.261 231.711L735.922 226.711ZM750.838 252.547L759.498 247.547L750.838 252.547ZM747.178 266.207L742.178 257.547L747.178 266.207ZM732.604 274.621L727.604 265.961L718.944 270.961L723.944 279.621L732.604 274.621ZM745.56 297.063L750.56 305.723L759.221 300.723L754.221 292.063L745.56 297.063ZM716.964 313.573L708.304 318.573L713.304 327.233L721.964 322.233L716.964 313.573ZM704.007 291.132L712.668 286.132L707.668 277.471L699.007 282.471L704.007 291.132ZM684.347 302.483L679.347 293.822L670.687 298.822L675.687 307.483L684.347 302.483ZM706.273 340.46L711.273 349.121L719.934 344.121L714.934 335.46L706.273 340.46ZM677.677 356.971L669.016 361.971L674.016 370.631L682.677 365.631L677.677 356.971ZM655.75 318.993L664.411 313.993L659.411 305.333L650.75 310.333L655.75 318.993ZM554.773 377.292L549.773 368.632L543.03 372.525L545.151 380.017L554.773 377.292ZM529.856 334.136L522.686 341.106L528.113 346.689L534.856 342.796L529.856 334.136ZM744.582 221.711C739.059 212.145 726.827 208.868 717.261 214.39L727.261 231.711L744.582 221.711ZM759.498 247.547L744.582 221.711L727.261 231.711L742.178 257.547L759.498 247.547ZM752.178 274.867C761.744 269.345 765.021 257.113 759.498 247.547L742.178 257.547L742.178 257.547L752.178 274.867ZM737.604 283.282L752.178 274.867L742.178 257.547L727.604 265.961L737.604 283.282ZM754.221 292.063L741.264 269.621L723.944 279.621L736.9 302.063L754.221 292.063ZM721.964 322.233L750.56 305.723L740.56 288.403L711.964 304.913L721.964 322.233ZM695.347 296.132L708.304 318.573L725.624 308.573L712.668 286.132L695.347 296.132ZM689.347 311.143L709.007 299.792L699.007 282.471L679.347 293.822L689.347 311.143ZM714.934 335.46L693.007 297.483L675.687 307.483L697.613 345.46L714.934 335.46ZM682.677 365.631L711.273 349.121L701.273 331.8L672.677 348.31L682.677 365.631ZM647.09 323.993L669.016 361.971L686.337 351.971L664.411 313.993L647.09 323.993ZM559.773 385.953L660.75 327.653L650.75 310.333L549.773 368.632L559.773 385.953ZM508.482 507.632C556.476 479.923 578.532 424.5 564.394 374.568L545.151 380.017C556.734 420.928 538.736 467.072 498.482 490.312L508.482 507.632ZM348.664 467.518C380.486 522.635 452.163 540.148 508.482 507.632L498.482 490.312C451.156 517.635 391.959 502.507 365.985 457.518L348.664 467.518ZM393.833 309.054C337.514 341.57 316.843 412.401 348.664 467.518L365.985 457.518C340.011 412.529 356.507 353.698 403.833 326.375L393.833 309.054ZM537.026 327.165C500.853 289.956 441.827 281.345 393.833 309.054L403.833 326.375C444.087 303.134 493.047 310.619 522.686 341.106L537.026 327.165ZM717.261 214.39L524.856 325.476L534.856 342.796L727.261 231.711L717.261 214.39ZM476.39 452.046C450.945 466.737 419.377 458.499 405.604 434.644L388.283 444.644C407.904 478.627 451.951 489.25 486.39 469.367L476.39 452.046ZM496.712 382.042C510.485 405.898 501.835 437.355 476.39 452.046L486.39 469.367C520.829 449.483 533.653 406.026 514.033 372.042L496.712 382.042ZM425.926 364.64C451.371 349.949 482.939 358.187 496.712 382.042L514.033 372.042C494.412 338.059 450.365 327.436 415.926 347.32L425.926 364.64ZM405.604 434.644C391.831 410.789 400.481 379.331 425.926 364.64L415.926 347.32C381.487 367.203 368.663 410.66 388.283 444.644L405.604 434.644Z" fill="#80B7B3" mask="url(#path-9-inside-3_7_13)"/>
<mask id="path-11-outside-4_7_13" maskUnits="userSpaceOnUse" x="475.319" y="29.2461" width="65" height="106" fill="black">
<rect fill="white" x="475.319" y="29.2461" width="65" height="106"/>
<path d="M500.137 103.064V102.519C500.198 96.7309 500.804 92.1249 501.955 88.7006C503.107 85.2764 504.743 82.5037 506.864 80.3825C508.986 78.2612 511.531 76.3067 514.501 74.5188C516.289 73.4279 517.895 72.14 519.319 70.6552C520.743 69.14 521.864 67.3976 522.682 65.4279C523.531 63.4582 523.955 61.2764 523.955 58.8825C523.955 55.9128 523.258 53.337 521.864 51.1552C520.47 48.9734 518.607 47.2915 516.273 46.1097C513.94 44.9279 511.349 44.337 508.501 44.337C506.016 44.337 503.622 44.8521 501.319 45.8825C499.016 46.9128 497.092 48.534 495.546 50.7461C494.001 52.9582 493.107 55.8521 492.864 59.4279H481.41C481.652 54.2764 482.986 49.8673 485.41 46.2006C487.864 42.534 491.092 39.7309 495.092 37.7915C499.122 35.8521 503.592 34.8825 508.501 34.8825C513.834 34.8825 518.47 35.9431 522.41 38.0643C526.379 40.1855 529.44 43.0946 531.592 46.7915C533.773 50.4885 534.864 54.7006 534.864 59.4279C534.864 62.7612 534.349 65.7764 533.319 68.4734C532.319 71.1703 530.864 73.5794 528.955 75.7006C527.076 77.8219 524.804 79.7006 522.137 81.337C519.47 83.0037 517.334 84.7612 515.728 86.6097C514.122 88.4279 512.955 90.5946 512.228 93.1097C511.501 95.6249 511.107 98.7612 511.046 102.519V103.064H500.137ZM505.955 129.973C503.713 129.973 501.789 129.17 500.182 127.564C498.576 125.958 497.773 124.034 497.773 121.792C497.773 119.549 498.576 117.625 500.182 116.019C501.789 114.413 503.713 113.61 505.955 113.61C508.198 113.61 510.122 114.413 511.728 116.019C513.334 117.625 514.137 119.549 514.137 121.792C514.137 123.276 513.758 124.64 513.001 125.882C512.273 127.125 511.289 128.125 510.046 128.882C508.834 129.61 507.47 129.973 505.955 129.973Z"/>
</mask>
<path d="M500.137 103.064V102.519C500.198 96.7309 500.804 92.1249 501.955 88.7006C503.107 85.2764 504.743 82.5037 506.864 80.3825C508.986 78.2612 511.531 76.3067 514.501 74.5188C516.289 73.4279 517.895 72.14 519.319 70.6552C520.743 69.14 521.864 67.3976 522.682 65.4279C523.531 63.4582 523.955 61.2764 523.955 58.8825C523.955 55.9128 523.258 53.337 521.864 51.1552C520.47 48.9734 518.607 47.2915 516.273 46.1097C513.94 44.9279 511.349 44.337 508.501 44.337C506.016 44.337 503.622 44.8521 501.319 45.8825C499.016 46.9128 497.092 48.534 495.546 50.7461C494.001 52.9582 493.107 55.8521 492.864 59.4279H481.41C481.652 54.2764 482.986 49.8673 485.41 46.2006C487.864 42.534 491.092 39.7309 495.092 37.7915C499.122 35.8521 503.592 34.8825 508.501 34.8825C513.834 34.8825 518.47 35.9431 522.41 38.0643C526.379 40.1855 529.44 43.0946 531.592 46.7915C533.773 50.4885 534.864 54.7006 534.864 59.4279C534.864 62.7612 534.349 65.7764 533.319 68.4734C532.319 71.1703 530.864 73.5794 528.955 75.7006C527.076 77.8219 524.804 79.7006 522.137 81.337C519.47 83.0037 517.334 84.7612 515.728 86.6097C514.122 88.4279 512.955 90.5946 512.228 93.1097C511.501 95.6249 511.107 98.7612 511.046 102.519V103.064H500.137ZM505.955 129.973C503.713 129.973 501.789 129.17 500.182 127.564C498.576 125.958 497.773 124.034 497.773 121.792C497.773 119.549 498.576 117.625 500.182 116.019C501.789 114.413 503.713 113.61 505.955 113.61C508.198 113.61 510.122 114.413 511.728 116.019C513.334 117.625 514.137 119.549 514.137 121.792C514.137 123.276 513.758 124.64 513.001 125.882C512.273 127.125 511.289 128.125 510.046 128.882C508.834 129.61 507.47 129.973 505.955 129.973Z" fill="white" fill-opacity="0.5"/>
<path d="M500.137 103.064H495.137V108.064H500.137V103.064ZM500.137 102.519L495.137 102.466L495.137 102.493V102.519H500.137ZM501.955 88.7006L497.216 87.1069V87.1069L501.955 88.7006ZM506.864 80.3825L510.4 83.918H510.4L506.864 80.3825ZM514.501 74.5188L517.08 78.8024L517.092 78.7948L517.105 78.787L514.501 74.5188ZM519.319 70.6552L522.927 74.1163L522.945 74.0981L522.962 74.0797L519.319 70.6552ZM522.682 65.4279L518.09 63.4498L518.078 63.4798L518.065 63.5099L522.682 65.4279ZM501.319 45.8825L499.277 41.3184L501.319 45.8825ZM495.546 50.7461L499.645 53.6096L499.645 53.6096L495.546 50.7461ZM492.864 59.4279V64.4279H497.537L497.853 59.7661L492.864 59.4279ZM481.41 59.4279L476.415 59.1929L476.169 64.4279H481.41V59.4279ZM485.41 46.2006L481.255 43.4192L481.247 43.4311L481.239 43.4431L485.41 46.2006ZM495.092 37.7915L492.924 33.286L492.917 33.2892L492.91 33.2925L495.092 37.7915ZM522.41 38.0643L520.039 42.4666L520.046 42.4704L520.053 42.4742L522.41 38.0643ZM531.592 46.7915L527.27 49.3065L527.278 49.3197L527.286 49.3328L531.592 46.7915ZM533.319 68.4734L528.648 66.689L528.639 66.712L528.631 66.7351L533.319 68.4734ZM528.955 75.7006L525.239 72.3558L525.225 72.3706L525.212 72.3855L528.955 75.7006ZM522.137 81.337L519.522 77.0754L519.504 77.0861L519.487 77.097L522.137 81.337ZM515.728 86.6097L519.475 89.9199L519.489 89.9046L519.502 89.8891L515.728 86.6097ZM511.046 102.519L506.047 102.438L506.046 102.479V102.519H511.046ZM511.046 103.064V108.064H516.046V103.064H511.046ZM500.182 127.564L503.718 124.029L500.182 127.564ZM500.182 116.019L503.718 119.554L500.182 116.019ZM513.001 125.882L508.732 123.279L508.708 123.318L508.686 123.357L513.001 125.882ZM510.046 128.882L512.619 133.17L512.634 133.161L512.649 133.151L510.046 128.882ZM505.137 103.064V102.519H495.137V103.064H505.137ZM505.137 102.571C505.195 97.032 505.78 93.0146 506.694 90.2943L497.216 87.1069C495.828 91.2352 495.201 96.4299 495.137 102.466L505.137 102.571ZM506.694 90.2944C507.65 87.4539 508.925 85.3931 510.4 83.918L503.329 76.8469C500.561 79.6142 498.564 83.0989 497.216 87.1069L506.694 90.2944ZM510.4 83.918C512.193 82.1245 514.405 80.4124 517.08 78.8024L511.922 70.2352C508.657 72.201 505.778 74.398 503.329 76.8469L510.4 83.918ZM517.105 78.787C519.254 77.4756 521.199 75.9179 522.927 74.1163L515.71 67.1941C514.59 68.3621 513.323 69.3802 511.896 70.2506L517.105 78.787ZM522.962 74.0797C524.81 72.1139 526.257 69.8579 527.3 67.3459L518.065 63.5099C517.472 64.9373 516.676 66.1661 515.676 67.2306L522.962 74.0797ZM527.275 67.406C528.422 64.7427 528.955 61.8774 528.955 58.8825H518.955C518.955 60.6753 518.64 62.1737 518.09 63.4498L527.275 67.406ZM528.955 58.8825C528.955 55.1025 528.058 51.562 526.078 48.4632L517.651 53.8471C518.459 55.112 518.955 56.7231 518.955 58.8825H528.955ZM526.078 48.4632C524.197 45.5197 521.655 43.2308 518.533 41.6492L514.014 50.5702C515.558 51.3523 516.744 52.4271 517.651 53.8471L526.078 48.4632ZM518.533 41.6492C515.438 40.0819 512.063 39.337 508.501 39.337V49.337C510.635 49.337 512.442 49.7739 514.014 50.5702L518.533 41.6492ZM508.501 39.337C505.301 39.337 502.212 40.0052 499.277 41.3184L503.361 50.4465C505.032 49.6991 506.731 49.337 508.501 49.337V39.337ZM499.277 41.3184C496.089 42.7445 493.474 44.9813 491.447 47.8826L499.645 53.6096C500.709 52.0866 501.943 51.081 503.361 50.4465L499.277 41.3184ZM491.447 47.8825C489.237 51.0463 488.16 54.8961 487.876 59.0897L497.853 59.7661C498.053 56.8082 498.764 54.8702 499.645 53.6096L491.447 47.8825ZM492.864 54.4279H481.41V64.4279H492.864V54.4279ZM486.404 59.6629C486.612 55.2536 487.733 51.7521 489.581 48.9582L481.239 43.4431C478.238 47.9825 476.693 53.2992 476.415 59.1929L486.404 59.6629ZM489.565 48.9821C491.522 46.0587 494.065 43.8458 497.273 42.2906L492.91 33.2925C488.118 35.6161 484.207 39.0092 481.255 43.4192L489.565 48.9821ZM497.26 42.297C500.55 40.7139 504.268 39.8825 508.501 39.8825V29.8825C502.915 29.8825 497.694 30.9904 492.924 33.286L497.26 42.297ZM508.501 39.8825C513.165 39.8825 516.956 40.8065 520.039 42.4666L524.78 33.6619C519.985 31.0796 514.503 29.8825 508.501 29.8825V39.8825ZM520.053 42.4742C523.25 44.1821 525.61 46.4539 527.27 49.3065L535.913 44.2766C533.27 39.7352 529.509 36.1889 524.766 33.6544L520.053 42.4742ZM527.286 49.3328C528.968 52.1836 529.864 55.5014 529.864 59.4279H539.864C539.864 53.8998 538.579 48.7935 535.898 44.2503L527.286 49.3328ZM529.864 59.4279C529.864 62.2443 529.43 64.6426 528.648 66.689L537.99 70.2577C539.268 66.9102 539.864 63.2782 539.864 59.4279H529.864ZM528.631 66.7351C527.848 68.8448 526.722 70.7077 525.239 72.3558L532.672 79.0455C535.007 76.4511 536.789 73.4959 538.007 70.2117L528.631 66.7351ZM525.212 72.3855C523.693 74.101 521.811 75.6705 519.522 77.0754L524.752 85.5986C527.796 83.7308 530.46 81.5427 532.698 79.0158L525.212 72.3855ZM519.487 77.097C516.513 78.9558 513.962 81.019 511.954 83.3304L519.502 89.8891C520.706 88.5035 522.428 87.0515 524.787 85.577L519.487 77.097ZM511.981 83.2996C509.847 85.7152 508.341 88.5523 507.425 91.7208L517.031 94.4986C517.57 92.6368 518.397 91.1406 519.475 89.9199L511.981 83.2996ZM507.425 91.7208C506.534 94.8018 506.112 98.4125 506.047 102.438L516.045 102.599C516.102 99.11 516.468 96.448 517.031 94.4986L507.425 91.7208ZM506.046 102.519V103.064H516.046V102.519H506.046ZM511.046 98.0643H500.137V108.064H511.046V98.0643ZM505.955 124.973C505.058 124.973 504.4 124.711 503.718 124.029L496.647 131.1C499.177 133.63 502.368 134.973 505.955 134.973V124.973ZM503.718 124.029C503.036 123.347 502.773 122.689 502.773 121.792H492.773C492.773 125.379 494.117 128.57 496.647 131.1L503.718 124.029ZM502.773 121.792C502.773 120.894 503.036 120.236 503.718 119.554L496.647 112.483C494.117 115.013 492.773 118.204 492.773 121.792H502.773ZM503.718 119.554C504.4 118.872 505.058 118.61 505.955 118.61V108.61C502.368 108.61 499.177 109.953 496.647 112.483L503.718 119.554ZM505.955 118.61C506.852 118.61 507.51 118.872 508.192 119.554L515.263 112.483C512.733 109.953 509.543 108.61 505.955 108.61V118.61ZM508.192 119.554C508.874 120.236 509.137 120.894 509.137 121.792H519.137C519.137 118.204 517.794 115.013 515.263 112.483L508.192 119.554ZM509.137 121.792C509.137 122.378 509.001 122.838 508.732 123.279L517.27 128.485C518.515 126.442 519.137 124.175 519.137 121.792H509.137ZM508.686 123.357C508.381 123.877 507.987 124.282 507.443 124.613L512.649 133.151C514.59 131.968 516.166 130.372 517.316 128.408L508.686 123.357ZM507.474 124.595C507.095 124.822 506.632 124.973 505.955 124.973V134.973C508.309 134.973 510.573 134.397 512.619 133.17L507.474 124.595Z" fill="white" mask="url(#path-11-outside-4_7_13)"/>
</g>
</svg>
